# xmcd
# 
# Track frame offsets:
#     150
#     27387
#     43790
#     65540
#     84537
#     108482
#     126830
#     138650
# 
# Disc length: 2267
# 
# Revision: 1
# Processed by: cddbd v1.5.2PL0 Copyright (c) Steve Scherf et al.
# Submitted via: BonkEnc v1.0.8
# 
DISCID=7208d908
DTITLE=Manolo Badrena - Manolo
DYEAR=1979
DGENRE=Fusion
TTITLE0=The One Thing
TTITLE1=Canales (Love Will Pave The Way)
TTITLE2=Got Some (News For You)
TTITLE3=Clube Da Esquina (The Corner)
TTITLE4=Fly Away (Agueybana)
TTITLE5=Claro Que Si (Yes Of Course)
TTITLE6=Yana
TTITLE7=Amor Lejano (Distant Love)
EXTD=YEAR: 1979
EXTT0=
EXTT1=
EXTT2=
EXTT3=
EXTT4=
EXTT5=
EXTT6=
EXTT7=
PLAYORDER=
